<svg xmlns="http://www.w3.org/2000/svg" viewBox="0 0 1440 320">
    <path fill="#0099ff" fill-opacity="1" d="M0,256L26.7,245.3C53.3,235,107,213,160,186.7C213.3,160,267,128,320,101.3C373.3,75,427,53,480,85.3C533.3,117,587,203,640,208C693.3,213,747,139,800,138.7C853.3,139,907,213,960,240C1013.3,267,1067,245,1120,213.3C1173.3,181,1227,139,1280,117.3C1333.3,96,1387,96,1413,96L1440,96L1440,320L1413.3,320C1386.7,320,1333,320,1280,320C1226.7,320,1173,320,1120,320C1066.7,320,1013,320,960,320C906.7,320,853,320,800,320C746.7,320,693,320,640,320C586.7,320,533,320,480,320C426.7,320,373,320,320,320C266.7,320,213,320,160,320C106.7,320,53,320,27,320L0,320Z"></path>
</svg>